<?xml version="1.0" standalone="no"?>
<!DOCTYPE svg PUBLIC "-//W3C//DTD SVG 20010904//EN"
 "http://www.w3.org/TR/2001/REC-SVG-20010904/DTD/svg10.dtd">
<svg version="1.0" xmlns="http://www.w3.org/2000/svg"
 width="535.000000pt" height="541.000000pt" viewBox="0 0 535.000000 541.000000"
 preserveAspectRatio="xMidYMid meet">

<g transform="translate(0.000000,541.000000) scale(0.100000,-0.100000)"
fill="#000000" stroke="none">
<path d="M0 4803 l0 -608 277 3 c153 2 283 8 288 12 14 12 96 -5 106 -21 6
-10 9 -11 9 -1 0 6 4 12 8 12 11 0 288 -275 367 -364 57 -65 79 -96 58 -83 -6
4 -31 0 -56 -9 -57 -19 -110 -76 -144 -153 -33 -73 -29 -163 11 -231 35 -61
35 -124 0 -171 -21 -28 -24 -41 -19 -75 l6 -41 -63 -12 c-131 -26 -208 -100
-208 -204 0 -45 -1 -47 -58 -86 -58 -40 -116 -94 -136 -129 -40 -69 -51 -92
-62 -137 -17 -61 -17 -167 -1 -215 20 -59 69 -132 126 -187 30 -29 59 -53 64
-53 5 0 22 -9 38 -21 26 -18 29 -26 29 -73 0 -77 42 -136 123 -175 34 -16 81
-32 103 -36 l41 -6 -5 -45 c-4 -37 0 -51 23 -84 23 -33 26 -45 20 -81 -4 -23
-18 -63 -31 -89 -19 -37 -24 -64 -24 -120 0 -66 -2 -74 -26 -93 -21 -16 -25
-27 -22 -53 4 -38 -2 -42 -28 -17 -16 16 -16 16 -10 -2 6 -20 -1 -20 -399 -17
l-405 2 0 -570 0 -570 2675 0 2675 0 0 570 0 570 -395 0 -396 0 -10 22 c-9 21
-9 21 -4 -5 4 -19 2 -26 -7 -25 -21 5 -28 21 -15 37 9 12 9 13 0 7 -9 -5 -13
-1 -13 12 0 10 -11 29 -24 41 -21 20 -23 28 -18 87 4 57 1 71 -27 128 -37 75
-40 125 -9 174 12 20 22 53 22 76 1 39 2 41 42 48 61 10 135 51 176 96 34 38
45 68 60 167 2 11 18 28 37 37 36 18 151 126 151 141 0 5 9 21 20 37 29 41 53
154 47 224 -10 112 -92 237 -214 328 -51 37 -53 41 -53 86 0 51 -31 115 -67
135 -79 46 -127 67 -163 73 l-42 7 5 43 c3 34 -1 50 -19 78 -33 49 -31 102 6
173 54 101 36 212 -51 308 -48 51 -100 80 -141 77 -10 0 -18 3 -18 7 0 5 58
66 128 137 71 71 131 137 135 147 3 9 13 17 21 17 8 0 24 16 36 35 12 19 28
35 36 35 8 0 14 7 14 15 0 8 7 15 15 15 7 0 18 6 22 14 4 7 18 18 31 25 12 7
20 15 18 20 -3 4 4 13 15 19 19 12 19 12 4 -12 -11 -16 -13 -26 -6 -31 6 -3
11 0 11 7 0 8 3 9 8 3 4 -7 116 -9 320 -7 l312 4 0 604 0 604 -2675 0 -2675 0
0 -607z m2746 473 c16 -17 19 -92 4 -101 -6 -4 -10 12 -10 40 0 28 -4 44 -10
40 -5 -3 -10 -24 -10 -45 0 -34 -3 -38 -23 -36 -57 6 -60 29 -12 79 41 42 41
42 61 23z m-101 -136 c4 -6 -5 -7 -23 -4 -48 10 -48 -7 -4 -100 3 -5 -16 6
-42 24 -25 18 -46 39 -46 46 0 32 98 61 115 34z m200 -2 c-11 -6 -35 -24 -52
-41 -24 -23 -33 -27 -33 -15 0 22 57 68 83 68 22 -1 22 -1 2 -12z m17 -100
c-7 -7 -12 -8 -12 -2 0 6 3 14 7 17 3 4 9 5 12 2 2 -3 -1 -11 -7 -17z m-668
-32 c-3 -9 -15 -16 -25 -16 -10 0 -19 -5 -19 -11 0 -17 72 -3 86 16 11 15 74
33 74 22 0 -4 -13 -13 -30 -22 -37 -19 -42 -48 -7 -40 15 4 28 0 37 -11 13
-15 10 -16 -50 -10 -61 6 -63 6 -40 -8 l25 -15 -25 -1 -25 -1 25 -14 c20 -11
21 -14 7 -15 -10 0 -32 -8 -50 -17 -18 -9 -35 -16 -38 -15 -4 0 -6 -4 -6 -11
0 -7 -1 -28 -2 -47 l-3 -35 -10 35 c-5 19 -14 40 -20 45 -14 13 -1 -79 17
-122 12 -27 11 -34 -2 -44 -12 -10 -16 -10 -24 2 -11 18 -11 26 1 34 18 11 10
26 -10 20 -15 -5 -20 -2 -20 13 0 10 3 22 7 26 4 3 8 16 10 27 3 19 2 19 -13
5 -23 -23 -27 -20 -20 14 3 17 3 30 0 30 -12 0 -83 -41 -91 -52 -30 -48 -41
-125 -22 -161 8 -15 9 -22 1 -25 -14 -4 13 -71 37 -92 9 -8 29 -32 45 -52 20
-28 23 -38 12 -38 -24 0 -85 80 -128 169 l-41 84 21 41 c25 46 70 97 122 139
34 26 34 27 10 26 -48 -2 -55 2 -23 16 20 8 39 28 49 48 19 40 57 65 116 76
50 9 50 9 42 -13z m501 14 c-3 -5 -13 -10 -21 -10 -8 0 -14 5 -14 10 0 6 9 10
21 10 11 0 17 -4 14 -10z m555 -59 c0 -12 -20 -25 -27 -18 -7 7 6 27 18 27 5
0 9 -4 9 -9z m-135 -11 c4 -6 -11 -10 -34 -10 -23 0 -41 4 -41 8 0 12 68 13
75 2z m85 0 c0 -13 -48 -32 -61 -24 -5 3 -7 10 -3 15 3 5 9 7 14 4 5 -3 11 -1
15 5 8 13 35 13 35 0z m-460 -10 c0 -5 -7 -10 -15 -10 -8 0 -15 5 -15 10 0 6
7 10 15 10 8 0 15 -4 15 -10z m0 -65 c0 -8 -7 -15 -15 -15 -8 0 -15 7 -15 15
0 8 7 15 15 15 8 0 15 -7 15 -15z m355 5 c-27 -12 -43 -12 -25 0 8 5 22 9 30
9 10 0 8 -3 -5 -9z m418 -79 c17 -19 11 -17 -26 10 -27 18 -51 38 -54 43 -11
17 58 -29 80 -53z m-775 -3 c-2 -13 -7 -23 -13 -23 -5 0 -11 10 -13 23 -2 15
2 22 13 22 11 0 15 -7 13 -22z m-595 -78 c3 -11 1 -18 -4 -14 -5 3 -9 12 -9
20 0 20 7 17 13 -6z m597 5 c0 -8 -7 -15 -15 -15 -8 0 -15 7 -15 15 0 8 7 15
15 15 8 0 15 -7 15 -15z m627 -51 c-9 -9 -28 6 -21 18 4 6 10 6 17 -1 6 -6 8
-13 4 -17z m-627 -10 c0 -9 -5 -14 -12 -12 -18 6 -21 28 -4 28 9 0 16 -7 16
-16z m-610 -40 c0 -8 -5 -12 -10 -9 -6 4 -8 11 -5 16 9 14 15 11 15 -7z m1224
8 c8 -13 -11 -35 -23 -28 -16 10 -14 36 3 36 8 0 17 -4 20 -8z m-614 -22 c0
-5 -7 -10 -15 -10 -8 0 -15 5 -15 10 0 6 7 10 15 10 8 0 15 -4 15 -10z m-750
-89 c-1 -10 -50 53 -50 63 0 6 11 -5 25 -24 14 -19 25 -36 25 -39z m174 38
c-8 -13 -24 -1 -24 18 0 13 3 13 15 3 8 -7 12 -16 9 -21z m1142 -6 c-11 -11
-17 4 -9 23 7 18 8 18 11 1 2 -10 1 -21 -2 -24z m-602 12 c3 -8 1 -15 -4 -15
-6 0 -10 7 -10 15 0 8 2 15 4 15 2 0 6 -7 10 -15z m69 -6 c-4 -13 -9 -17 -15
-11 -11 11 -3 32 12 32 4 0 6 -9 3 -21z m729 -6 c-26 -36 -72 -79 -72 -68 0 9
80 95 88 95 2 0 -6 -12 -16 -27z m-2677 -84 c3 -9 46 -57 95 -108 50 -51 90
-96 90 -100 0 -4 35 -43 78 -87 42 -43 95 -102 116 -129 21 -28 60 -71 85 -96
63 -63 91 -95 91 -105 0 -5 12 -20 25 -33 14 -13 23 -26 19 -30 -3 -3 -12 3
-21 14 -8 11 -19 19 -24 18 -5 -2 -9 8 -9 22 0 14 -4 25 -9 25 -11 0 -8 -40 4
-60 8 -13 6 -13 -8 -1 -9 7 -14 17 -11 22 3 5 1 16 -4 25 -8 14 -10 14 -22 -1
-11 -13 -10 -14 5 -9 12 5 16 4 11 -4 -8 -14 22 -62 39 -62 7 0 16 -8 19 -17
6 -15 9 -15 17 -3 9 12 10 12 5 -3 -4 -12 22 -48 89 -124 52 -58 95 -112 95
-119 0 -7 9 -18 20 -24 31 -16 24 -30 -16 -30 -21 0 -33 -4 -29 -10 3 -5 20
-10 36 -10 17 0 32 -6 35 -15 4 -8 14 -15 24 -15 10 0 25 -7 34 -15 8 -8 19
-15 25 -15 6 0 11 -6 11 -13 0 -7 15 -29 34 -49 l35 -37 -34 -11 c-19 -6 -43
-9 -52 -6 -16 6 -101 92 -528 535 -257 267 -383 398 -467 483 -86 87 -88 91
-88 137 0 43 5 54 46 99 l46 51 44 -37 c24 -20 46 -44 49 -53z m3867 2 c32
-47 20 -118 -26 -151 -11 -8 -43 -39 -71 -69 -27 -30 -92 -98 -142 -150 -51
-53 -93 -99 -93 -103 0 -3 -78 -84 -174 -180 -95 -95 -227 -229 -293 -298 -65
-69 -153 -158 -195 -198 l-76 -73 -41 11 -42 11 53 60 c32 35 64 62 80 65 15
4 25 10 22 15 -3 5 1 12 10 15 8 3 13 11 10 18 -3 7 2 19 11 26 8 7 15 17 15
23 0 11 55 81 111 142 21 22 48 54 60 70 13 17 28 33 34 37 6 5 6 8 -2 8 -8 0
-10 7 -6 17 4 11 8 12 11 5 8 -24 20 -11 36 35 19 54 20 64 5 43 -8 -11 -9 -9
-3 10 3 14 43 62 87 106 44 45 84 90 90 100 6 11 43 53 83 94 40 41 83 89 95
105 42 55 153 165 160 157 4 -4 9 -16 11 -26 3 -18 4 -19 20 -3 11 11 34 17
65 18 l48 1 -35 11 -35 10 30 7 30 6 -25 7 c-44 12 -73 9 -66 -8 6 -16 -11
-20 -31 -7 -8 5 5 25 40 64 l51 57 35 -31 c20 -17 44 -43 53 -57z m-1942 50
c5 -11 10 -28 9 -38 0 -10 -3 -13 -6 -5 -13 31 -24 7 -21 -48 2 -33 0 -60 -4
-60 -5 0 -8 27 -8 60 0 57 -13 80 -23 43 -3 -10 -4 -6 -3 8 2 27 22 59 37 59
5 0 13 -9 19 -19z m763 -23 c-10 -18 -34 -51 -54 -74 -20 -23 -40 -51 -44 -63
-4 -13 -9 -21 -11 -18 -2 2 7 32 21 68 17 43 37 74 62 96 21 17 39 30 41 28 2
-2 -4 -19 -15 -37z m-1288 -10 c47 -32 55 -53 38 -110 -14 -51 -30 -67 -18
-20 4 17 3 24 -3 17 -6 -5 -12 -19 -14 -30 -3 -13 -12 2 -26 45 -21 62 -22 63
-19 23 3 -51 -3 -53 -26 -14 -20 33 -21 49 -7 85 12 32 30 33 75 4z m1045 -19
c0 -49 -21 -123 -31 -107 -6 9 -9 6 -10 -12 -1 -24 -1 -24 -14 6 -29 66 -28
78 6 112 41 40 49 40 49 1z m-1385 0 c22 -6 46 -18 53 -27 27 -35 15 -39 -95
-34 -78 3 -117 0 -142 -10 -32 -13 -26 -14 92 -13 120 0 127 -1 149 -24 21
-22 21 -23 3 -17 -116 41 -274 24 -345 -37 -11 -9 -20 -12 -20 -7 0 29 -122
-68 -163 -130 -12 -16 -20 -21 -27 -14 -22 22 91 140 154 160 11 4 44 26 71
49 71 61 165 114 200 115 17 0 48 -5 70 -11z m1835 -19 c101 -39 270 -192 270
-244 0 -16 -14 -7 -67 45 -102 99 -230 156 -359 160 -58 2 -64 10 -38 48 16
22 22 23 78 18 34 -3 86 -15 116 -27z m-254 -116 c-8 -20 -36 -18 -36 3 0 9 8
25 18 36 17 19 17 19 20 -3 2 -12 1 -28 -2 -36z m195 41 c106 -28 184 -72 250
-143 90 -96 57 -94 -44 3 -49 47 -101 88 -115 91 -15 3 -47 13 -72 21 -25 8
-73 18 -107 20 -35 3 -63 10 -63 14 0 14 87 10 151 -6z m-1651 -26 c0 -10 -4
-19 -10 -19 -5 0 -10 12 -10 26 0 14 4 23 10 19 6 -3 10 -15 10 -26z m651 14
c13 -15 12 -15 -11 -3 -34 17 -36 20 -18 20 9 0 22 -7 29 -17z m169 2 c-33
-19 -50 -18 -26 0 11 8 27 15 35 15 10 -1 7 -6 -9 -15z m-459 -5 c26 -15 24
-35 -7 -55 -25 -16 -26 -16 -19 5 4 14 1 28 -11 41 -16 18 -16 19 0 19 10 0
26 -5 37 -10z m755 -9 c-12 -13 -15 -27 -11 -42 8 -23 -3 -21 -38 9 -16 14
-16 16 -1 34 10 10 28 18 42 18 24 0 24 -1 8 -19z m-1596 -1 c12 -7 10 -11
-10 -19 -34 -13 -140 -109 -140 -127 0 -14 -12 -19 -23 -8 -13 13 39 88 85
125 52 41 64 45 88 29z m645 -10 c3 -5 -1 -10 -11 -10 -12 0 -15 -5 -10 -22
19 -62 19 -64 -3 -38 -20 25 -27 60 -14 73 10 10 31 8 38 -3z m-95 -23 c0 -2
-9 -12 -20 -22 -19 -18 -20 -17 -20 3 0 15 6 22 20 22 11 0 20 -2 20 -3z
m1172 -19 c-7 -7 -12 -8 -12 -2 0 6 3 14 7 17 3 4 9 5 12 2 2 -3 -1 -11 -7
-17z m168 12 c0 -5 -6 -10 -14 -10 -9 0 -12 -7 -9 -20 3 -11 0 -20 -6 -20 -12
0 -15 42 -4 53 10 11 33 8 33 -3z m323 -6 c37 -19 108 -82 155 -138 57 -68 24
-53 -48 22 -38 40 -91 86 -117 102 -50 32 -44 41 10 14z m-2109 -5 c-5 -9 1
-10 22 -5 16 4 56 10 89 13 55 4 63 2 101 -25 58 -42 89 -113 65 -150 -6 -10
-10 -4 -15 21 -8 45 -71 103 -121 113 -25 4 -55 0 -97 -14 l-60 -21 18 21 c19
21 19 21 -2 10 -12 -6 -29 -24 -39 -39 -20 -31 -129 -143 -139 -143 -19 0 1
32 49 80 31 30 72 76 91 103 32 42 56 65 38 36z m2054 -9 c57 -26 80 -44 153
-125 45 -50 58 -70 49 -79 -8 -8 -14 -7 -20 5 -22 38 -121 128 -165 149 -29
14 -67 23 -99 24 -82 1 -127 -35 -162 -129 -7 -18 -8 -16 -12 9 -2 15 -1 39 2
52 8 29 63 93 90 104 38 15 120 10 164 -10z m-1688 -43 c11 -18 20 -41 20 -52
0 -16 2 -17 10 -5 7 11 11 9 19 -14 6 -15 8 -33 4 -39 -4 -6 -6 -24 -5 -39 3
-32 -34 -96 -72 -126 -31 -24 -33 -38 -7 -52 29 -15 68 -12 75 6 3 8 10 12 16
9 11 -7 -5 -44 -24 -57 -7 -5 -4 -8 7 -8 9 0 17 -7 17 -15 0 -12 -7 -14 -27
-9 -84 19 -122 75 -84 123 11 14 33 49 47 76 l26 50 -31 -29 c-38 -36 -39 -31
-6 25 14 24 25 54 25 67 0 31 -26 92 -53 121 l-22 24 23 -12 c13 -7 32 -27 42
-44z m492 24 c4 -24 0 -30 -19 -34 -23 -4 -31 7 -13 18 6 3 10 15 10 26 0 30
17 22 22 -10z m514 -5 c10 -32 9 -34 -6 -26 -10 5 -19 7 -22 5 -3 -3 -5 9 -5
25 0 41 20 38 33 -4z m269 -6 c0 -22 -3 -40 -7 -40 -10 0 -10 42 -2 64 9 23
10 20 9 -24z m26 3 c-8 -15 -10 -15 -11 -2 0 17 10 32 18 25 2 -3 -1 -13 -7
-23z m-1802 -72 c-74 -75 -101 -88 -53 -26 34 45 118 118 122 106 1 -5 -29
-41 -69 -80z m790 85 c-2 -2 -20 -6 -39 -10 -25 -4 -31 -3 -20 4 14 9 69 15
59 6z m924 -3 c-7 -2 -19 -2 -25 0 -7 3 -2 5 12 5 14 0 19 -2 13 -5z m-1283
-34 c15 -28 5 -23 -15 7 -9 15 -12 23 -6 20 6 -4 16 -16 21 -27z m200 9 c0
-16 -3 -19 -11 -11 -6 6 -8 16 -5 22 11 17 16 13 16 -11z m610 -3 c0 -8 -4
-15 -10 -15 -5 0 -10 7 -10 15 0 8 5 15 10 15 6 0 10 -7 10 -15z m-2060 -36
c0 -5 -9 -1 -20 8 -11 10 -20 22 -20 27 0 5 9 1 20 -9 11 -10 20 -22 20 -26z
m1114 18 c16 -12 14 -13 -17 -9 -19 2 -45 -2 -58 -8 -52 -27 -149 -94 -149
-104 0 -6 -14 -27 -30 -46 -22 -27 -31 -32 -41 -23 -9 9 -8 18 6 40 74 114
229 194 289 150z m192 -54 c4 -19 4 -37 1 -40 -3 -3 -9 8 -12 23 -3 16 -10 43
-15 59 -9 28 -8 28 5 11 8 -11 18 -35 21 -53z m281 20 c-3 -10 -5 -2 -5 17 0
19 2 27 5 18 2 -10 2 -26 0 -35z m943 16 c0 -16 -4 -28 -9 -25 -8 5 -3 56 5
56 2 0 4 -14 4 -31z m470 10 c63 -28 102 -61 145 -119 34 -46 36 -53 22 -67
-16 -16 -16 -16 -52 52 -12 23 -96 88 -145 112 -19 10 -54 17 -77 18 -49 0
-52 2 -20 15 36 14 79 11 127 -11z m-414 -26 c-7 -7 -26 7 -26 19 0 6 6 6 15
-2 9 -7 13 -15 11 -17z m-1166 -18 c0 -8 -4 -15 -10 -15 -5 0 -10 7 -10 15 0
8 5 15 10 15 6 0 10 -7 10 -15z m1287 -11 c-9 -9 -28 6 -21 18 4 6 10 6 17 -1
6 -6 8 -13 4 -17z m-619 9 c-21 -2 -55 -2 -75 0 -21 2 -4 4 37 4 41 0 58 -2
38 -4z m-518 -33 c-8 -5 -26 -10 -40 -11 -23 -2 -23 -2 -3 -6 18 -4 21 -9 17
-31 -8 -38 25 -67 63 -57 43 11 174 21 179 13 2 -3 -20 -9 -48 -12 -129 -16
-219 -30 -223 -35 -2 -3 45 -3 103 1 140 10 552 8 552 -2 0 -4 -150 -10 -332
-12 -272 -4 -342 -8 -383 -21 -66 -22 -70 -21 -50 9 30 45 52 63 64 51 15 -15
56 25 48 47 -9 24 -38 32 -51 14 -13 -17 -31 -13 -57 13 -22 22 -19 24 51 38
65 13 129 13 110 1z m428 -25 c-8 -18 -8 -31 0 -49 6 -13 8 -27 5 -30 -10 -10
-173 -7 -173 3 0 5 9 13 21 16 21 7 21 21 3 69 -5 14 5 16 75 16 l81 0 -12
-25z m239 5 c-2 -11 -6 -23 -10 -26 -11 -11 -8 -21 8 -37 13 -14 6 -16 -60
-19 -41 -2 -75 -2 -75 -1 0 1 5 13 11 27 10 20 9 30 -5 51 l-16 25 75 0 c69 0
75 -2 72 -20z m-185 -32 c-9 -9 -12 -7 -12 12 0 19 3 21 12 12 9 -9 9 -15 0
-24z m-994 12 c9 0 25 -7 35 -14 17 -13 17 -15 -7 -39 -13 -13 -37 -28 -52
-31 -15 -4 -48 -27 -73 -52 -24 -25 -48 -41 -53 -36 -13 13 62 93 106 112 32
15 36 19 18 19 -33 1 -74 -23 -111 -65 -18 -20 -35 -34 -37 -31 -11 11 28 68
63 92 41 27 29 34 -17 10 -37 -19 -39 -12 -5 11 29 19 84 34 103 28 8 -2 21
-4 30 -4z m1997 -17 c11 -6 29 -21 40 -34 l20 -23 -31 22 c-17 12 -44 26 -60
32 l-29 10 30 -23 c56 -42 85 -76 85 -99 0 -20 -4 -18 -37 21 -36 43 -85 71
-120 71 -10 -1 2 -12 28 -25 49 -25 104 -88 93 -106 -4 -7 -18 3 -35 24 -16
19 -48 44 -71 55 -55 27 -91 59 -83 72 17 27 122 29 170 3z m-1445 7 c0 -5 -7
-10 -16 -10 -8 0 -12 5 -9 10 3 6 10 10 16 10 5 0 9 -4 9 -10z m910 0 c0 -5
-4 -10 -10 -10 -5 0 -10 5 -10 10 0 6 5 10 10 10 6 0 10 -4 10 -10z m105 -38
c-8 -9 -25 20 -18 31 3 5 10 2 15 -7 6 -10 7 -20 3 -24z m-1141 4 c-3 -9 -10
-13 -16 -10 -5 3 -4 12 3 20 15 18 22 13 13 -10z m-608 -48 c-9 -12 -16 -19
-16 -15 0 11 24 47 28 42 2 -2 -3 -14 -12 -27z m507 -21 c-21 -38 -42 -56 -63
-56 -9 0 -6 4 6 9 12 5 30 26 40 48 11 22 22 38 27 35 4 -2 -1 -19 -10 -36z
m-173 13 c18 -10 18 -12 2 -40 -17 -30 -32 -39 -32 -20 0 6 -4 10 -10 10 -20
0 -9 -21 19 -38 33 -18 46 -48 26 -56 -17 -6 -70 32 -89 65 -14 23 -14 28 0
48 9 12 26 26 38 31 28 11 25 11 46 0z m1620 -5 c63 -33 42 -96 -45 -136 -46
-21 -55 -18 -55 22 0 27 3 29 39 29 22 0 44 6 51 15 17 21 6 29 -18 14 -17
-10 -23 -10 -36 0 -21 18 -20 48 2 60 23 14 28 13 62 -4z m-1746 -22 c-18 -41
-16 -104 2 -125 37 -40 65 -47 182 -45 109 2 136 -5 90 -22 -38 -14 -98 -20
-98 -11 0 5 -28 7 -64 3 -82 -7 -108 0 -155 42 -58 52 -62 102 -12 143 14 11
13 12 -6 2 -30 -14 -53 -49 -53 -80 0 -20 -2 -22 -10 -10 -18 27 -10 52 26 86
26 25 44 34 71 34 30 0 34 -3 27 -17z m1907 -8 c40 -30 53 -66 33 -92 -12 -16
-13 -14 -14 19 0 30 -6 41 -32 59 l-33 23 23 -25 c35 -39 29 -82 -17 -131 -37
-41 -42 -42 -109 -46 -65 -4 -112 7 -112 27 0 4 13 6 30 3 107 -16 206 79 156
150 -9 12 -16 26 -16 30 0 18 58 6 91 -17z m-1271 -5 c0 -5 -5 -10 -12 -10 -6
0 -9 -3 -6 -6 3 -3 35 0 69 7 78 14 340 12 354 -3 7 -8 6 -8 -5 -3 -12 7 -13
6 -3 -6 10 -13 7 -17 -20 -26 -18 -6 -66 -15 -107 -18 -41 -4 -86 -13 -100
-20 -15 -7 -88 -14 -182 -18 l-158 -5 0 28 c0 26 5 30 55 45 61 17 73 28 23
18 -23 -4 -30 -2 -23 5 6 6 30 12 55 15 25 2 48 4 53 5 4 1 7 -2 7 -8z m-223
-34 c-63 -23 -70 -33 -62 -95 4 -40 3 -52 -4 -41 -6 8 -11 35 -11 60 0 36 5
49 27 67 15 14 39 23 57 23 l31 -1 -38 -13z m686 7 c-7 -2 -19 -2 -25 0 -7 3
-2 5 12 5 14 0 19 -2 13 -5z m494 -125 c-2 -18 -4 -4 -4 32 0 36 2 50 4 33 2
-18 2 -48 0 -65z m-630 30 c-16 -17 -23 -19 -25 -9 -4 14 15 31 35 31 7 0 2
-10 -10 -22z m1248 -31 c-7 -16 -35 -13 -35 4 0 4 8 5 17 2 13 -5 15 -3 9 13
-5 14 -4 16 4 8 6 -6 8 -18 5 -27z m-1199 -32 c-3 -8 -16 -15 -28 -14 l-23 0
23 11 c12 6 22 18 23 27 0 11 2 12 6 3 3 -7 2 -19 -1 -27z m-496 0 c-63 -32
-113 -41 -129 -21 -11 13 -8 16 21 20 18 3 56 10 83 15 73 13 74 12 25 -14z
m959 10 c2 -2 1 -11 -3 -20 -4 -13 -14 -14 -43 -9 -51 9 -56 13 -42 31 9 10
23 13 48 8 20 -4 38 -8 40 -10z m291 -33 c43 1 73 0 67 -4 -14 -9 -133 -10
-164 -2 -13 4 -23 10 -23 16 0 5 10 4 21 -3 13 -6 53 -10 99 -7z m-1600 -4 c0
-5 -38 -8 -84 -8 -47 0 -87 3 -89 8 -3 4 35 7 84 7 49 0 89 -3 89 -7z m128 7
c-9 -9 -103 -23 -113 -17 -5 4 10 10 35 13 65 9 84 10 78 4z m582 -6 c-46 -13
-317 -24 -307 -13 8 8 165 20 277 21 58 1 61 0 30 -8z m1255 1 c-3 -5 -12 -10
-18 -10 -7 0 -6 4 3 10 19 12 23 12 15 0z m-1785 -19 c0 -13 -95 -51 -127 -51
-22 0 -25 2 -13 10 24 16 -28 12 -75 -5 -47 -17 -85 -19 -85 -5 0 6 10 11 23
11 15 1 10 4 -13 9 -33 7 -31 8 20 10 30 2 84 4 120 5 36 1 76 7 90 13 31 13
60 15 60 3z m1079 0 c7 -5 10 -14 7 -20 -9 -14 -46 -14 -66 -1 -13 9 -13 11 0
20 19 12 41 12 59 1z m245 -6 c27 -8 68 -16 90 -16 l41 -2 -35 -7 c-28 -6 -26
-16 3 -11 4 0 7 -4 7 -10 0 -16 -84 -2 -136 24 -43 20 -57 37 -31 37 6 0 34
-7 61 -15z m-1171 -12 c-76 -17 -87 -42 -20 -44 23 -1 32 -4 20 -6 -16 -3 -23
-11 -23 -29 0 -15 -6 -24 -15 -24 -9 0 -15 9 -15 24 0 13 -7 29 -15 36 -9 7
-14 18 -12 24 4 12 79 34 117 34 14 0 -3 -6 -37 -15z m-1008 -33 c3 -11 15
-22 25 -25 21 -7 34 -41 49 -135 6 -36 18 -108 26 -160 9 -52 18 -140 19 -195
3 -86 3 -90 -3 -30 -5 48 -8 59 -11 35 -3 -32 -3 -31 -10 15 -14 106 -71 354
-100 439 -16 50 -30 92 -30 94 0 11 30 -22 35 -38z m2834 -75 c-16 -55 -45
-174 -65 -265 -48 -227 -51 -240 -53 -212 0 13 3 53 8 90 6 37 15 114 21 172
19 172 32 222 75 274 21 26 39 45 41 43 2 -1 -10 -48 -27 -102z m-1470 78 c17
-10 31 -21 31 -25 0 -5 -22 -8 -50 -8 -27 0 -95 -5 -150 -11 -56 -6 -104 -8
-107 -5 -3 3 -1 12 5 19 7 8 9 17 6 20 -12 11 43 19 193 25 24 1 54 -5 72 -15z
m-1445 -3 c34 -13 60 -64 46 -90 -16 -29 -90 -29 -90 0 0 24 -26 26 -75 6 -39
-17 -50 -35 -59 -96 -4 -30 -3 -38 3 -25 7 17 10 13 13 -20 4 -33 5 -29 6 20
3 77 17 101 18 29 0 -30 5 -59 10 -64 7 -7 9 -2 7 17 -3 15 0 39 6 53 9 24 10
24 10 3 2 -52 24 -124 47 -148 34 -37 30 -39 -16 -9 -28 19 -48 25 -70 22 -27
-4 -33 0 -47 25 -25 49 -21 135 9 182 56 88 117 120 182 95z m1997 0 c5 0 9
-14 9 -31 0 -26 -3 -30 -22 -27 -18 2 -24 11 -26 37 -3 28 -1 33 13 27 9 -3
21 -6 26 -6z m1130 -25 c68 -45 94 -137 68 -237 -12 -42 -13 -43 -48 -40 -26
3 -46 -3 -73 -22 -21 -14 -38 -24 -38 -23 0 2 11 18 25 36 13 19 27 55 31 80
10 70 23 85 24 26 1 -43 2 -47 12 -30 7 11 12 41 12 67 0 66 15 37 17 -32 1
-30 4 -43 6 -27 2 15 9 25 14 22 13 -9 11 46 -4 74 -25 49 -127 82 -127 41 0
-16 -7 -20 -38 -20 -69 0 -83 43 -30 92 28 26 38 29 71 25 21 -3 56 -17 78
-32z m-1978 18 c-7 -2 -19 -2 -25 0 -7 3 -2 5 12 5 14 0 19 -2 13 -5z m152
-82 c-5 -9 -92 -61 -101 -61 -7 0 -4 56 3 63 10 11 105 8 98 -2z m-195 -21
l-25 -6 -3 -287 c-1 -180 -6 -287 -12 -287 -6 0 -10 108 -10 294 l0 295 28 3
c36 5 53 -5 22 -12z m850 -113 l0 -133 -33 -40 c-53 -61 -57 -75 -57 -190 l0
-106 -40 -40 c-30 -30 -45 -39 -67 -36 l-28 3 -3 88 c-1 48 -5 87 -8 87 -14 0
-103 -84 -95 -89 5 -3 11 -21 13 -40 3 -33 1 -35 -32 -43 -19 -4 -50 -5 -68
-1 l-33 5 22 24 c30 31 20 31 -17 -1 -39 -34 -50 -36 -189 -33 -107 3 -120 5
-123 21 -5 27 7 67 20 67 6 0 50 37 97 83 47 45 104 94 127 107 83 50 171 109
232 156 l62 48 0 66 c0 43 5 73 16 88 26 37 90 25 107 -20 3 -8 17 1 37 25 54
64 60 55 60 -96z m105 -65 c0 -131 -3 -184 -12 -194 -10 -10 -13 28 -13 186 0
154 3 197 13 193 9 -3 12 -49 12 -185z m-896 -128 c0 -228 -2 -295 -12 -291
-9 3 -13 71 -15 268 -3 265 1 334 18 324 5 -3 9 -133 9 -301z m841 41 l-6
-210 -1 235 c-1 129 2 224 5 210 4 -14 5 -119 2 -235z m1068 155 c-2 -35 -11
-67 -20 -77 -14 -16 -40 -62 -120 -213 -10 -19 -18 -42 -18 -52 0 -9 -9 -22
-19 -28 -18 -9 -19 -7 -18 39 1 27 4 47 6 45 2 -2 13 19 23 48 10 29 34 68 53
88 19 20 35 41 35 47 0 6 6 16 14 22 19 16 56 96 56 121 0 11 3 20 6 20 4 0 4
-27 2 -60z m-3109 -47 c12 -24 25 -43 29 -43 4 0 18 -18 32 -40 14 -22 27 -40
31 -40 15 0 59 -128 59 -172 0 -18 -5 -28 -15 -28 -8 0 -15 7 -15 16 0 20 -79
181 -120 244 -35 56 -53 114 -44 143 7 21 8 20 14 -8 4 -16 17 -49 29 -72z
m366 -9 c32 -83 28 -168 -10 -266 -4 -11 -3 -18 4 -18 16 0 71 119 70 150 l-1
25 -8 -25 c-6 -19 -8 -12 -9 30 -1 34 -8 65 -18 80 l-17 25 25 -20 c47 -39 50
-47 43 -105 -4 -30 -7 -69 -8 -87 0 -17 -4 -29 -8 -26 -5 2 -8 -1 -8 -8 0 -6
-12 -38 -27 -71 -22 -50 -30 -59 -47 -54 -12 3 -25 6 -30 6 -5 0 -6 21 -2 48
4 26 1 86 -6 135 -9 70 -9 100 1 150 20 95 29 100 56 31z m2386 4 c13 -49 14
-107 5 -258 -5 -96 -8 -105 -28 -113 -25 -9 -44 9 -55 51 -3 12 -8 22 -12 22
-3 0 -7 12 -8 28 -1 15 -11 62 -23 106 -16 56 -19 81 -11 89 8 8 11 6 11 -8 0
-46 55 -195 72 -195 11 0 10 8 -7 64 -19 61 -19 143 -1 187 7 19 16 42 19 52
11 29 26 19 38 -25z m-2602 -88 c12 -27 21 -57 21 -66 0 -10 5 -32 11 -49 9
-23 9 -46 2 -81 l-11 -49 -1 50 c-1 54 -25 157 -42 184 -8 14 -9 13 -5 -4 18
-71 17 -80 -3 -36 -25 51 -29 113 -7 105 8 -3 24 -27 35 -54z m2513 34 c-3
-17 -8 -22 -15 -15 -7 7 -6 15 3 26 17 20 18 19 12 -11z m308 -12 c0 -15 -9
-45 -20 -67 -22 -43 -25 -38 -10 14 18 65 1 43 -19 -24 -12 -37 -21 -95 -21
-129 -1 -48 -3 -57 -11 -43 -21 35 6 195 42 253 23 38 39 36 39 -4z m-3032 -1
c43 -22 101 -80 67 -66 -46 18 -58 15 -25 -5 40 -25 80 -60 80 -70 0 -15 -37
-4 -71 22 -38 29 -108 51 -95 30 4 -7 12 -12 18 -12 14 0 80 -41 75 -46 -3 -4
-96 33 -106 42 -2 2 -6 31 -7 64 -4 69 2 73 64 41z m3254 7 c3 -7 2 -35 -1
-63 -6 -48 -8 -51 -55 -73 -55 -26 -76 -22 -27 5 18 10 40 24 49 31 35 28 -42
2 -85 -29 -23 -16 -46 -29 -53 -29 -22 0 31 60 71 80 21 11 39 22 39 25 0 5
-55 -11 -72 -21 -27 -16 18 30 56 58 42 30 71 36 78 16z m-3237 -168 c35 -13
31 -20 -7 -15 -29 5 -27 3 15 -16 26 -12 47 -25 47 -29 0 -4 -30 -7 -67 -6
-38 1 -76 -3 -85 -8 -28 -13 -24 48 4 74 23 21 37 21 93 0z m3238 9 c27 -15
37 -28 37 -54 0 -18 -7 -20 -85 -20 -85 0 -105 8 -62 24 12 5 33 14 47 20 23
10 21 11 -14 7 -21 -3 -36 -3 -34 -1 4 4 73 31 86 34 2 1 13 -4 25 -10z
m-3115 -22 c6 -6 13 -26 16 -42 6 -27 4 -26 -11 8 -10 21 -21 36 -25 32 -3 -3
-9 -2 -13 4 -9 15 20 14 33 -2z m2940 -19 c-6 -15 -14 -31 -20 -34 -6 -4 -5 2
1 14 6 11 11 27 11 34 -1 20 -30 -23 -30 -44 0 -10 -5 -18 -10 -18 -6 0 -4 15
5 36 8 20 15 38 15 40 0 1 8 2 19 1 16 -1 17 -5 9 -29z m-2730 -35 c-2 -43 -7
-58 -18 -58 -11 0 -14 11 -11 50 3 54 7 65 22 65 6 0 9 -24 7 -57z m2516 41
c12 -31 7 -104 -8 -104 -14 0 -32 92 -21 110 9 15 22 12 29 -6z m-2737 -36
c-3 -8 -6 -5 -6 6 -1 11 2 17 5 13 3 -3 4 -12 1 -19z m113 -93 c560 -134 1133
-187 1670 -155 334 20 711 77 1042 156 168 41 192 41 196 2 4 -36 60 -84 114
-99 27 -7 78 -9 139 -5 67 4 99 2 107 -6 7 -7 12 -40 12 -79 l0 -67 53 -30
c80 -47 173 -141 204 -209 37 -79 37 -166 1 -243 -35 -76 -123 -169 -197 -209
l-61 -32 0 -69 c0 -85 -14 -104 -68 -93 -21 5 -71 8 -112 8 -103 0 -169 -32
-185 -88 -17 -59 -29 -61 -152 -28 -153 42 -330 81 -365 81 -17 0 -69 7 -117
15 -355 59 -557 77 -911 77 -369 1 -514 -10 -930 -72 -221 -34 -258 -41 -420
-83 -85 -22 -165 -42 -176 -44 -24 -5 -32 4 -54 60 -13 33 -24 43 -70 63 -61
26 -155 32 -209 13 -24 -8 -39 -9 -57 0 -22 10 -24 16 -24 84 l0 74 -42 19
c-60 27 -193 159 -220 220 -34 75 -32 181 5 256 32 66 134 165 209 204 l47 24
3 77 3 78 115 -4 c91 -2 124 0 155 13 46 19 85 53 85 73 0 27 21 53 43 53 12
0 87 -15 167 -35z m-356 -46 c12 -11 -50 -12 -109 -2 -37 6 -38 7 -15 14 30 9
111 1 124 -12z m3551 12 c27 -6 24 -8 -25 -14 -77 -10 -116 -9 -104 2 18 18
79 23 129 12z m-1392 -1100 c4 -1 7 -32 7 -70 0 -72 -5 -82 -89 -174 -4 -4
-52 0 -107 8 -54 8 -144 15 -199 15 l-100 0 25 20 c14 11 63 45 110 76 99 66
140 102 140 123 0 14 13 15 102 10 57 -4 106 -7 111 -8z m-785 -127 c-4 -153
-22 -155 -26 -2 -3 117 2 148 19 131 6 -6 8 -59 7 -129z m-88 -9 c0 -83 -4
-135 -10 -135 -6 0 -10 52 -10 135 0 83 4 135 10 135 6 0 10 -52 10 -135z
m-1305 79 c-36 -15 -94 -17 -115 -4 -13 8 -13 10 0 14 21 7 112 12 130 7 9 -3
4 -9 -15 -17z m3583 7 c10 -6 4 -10 -18 -15 -49 -9 -82 -7 -110 9 -23 13 -21
14 45 14 39 1 76 -3 83 -8z m-2992 -118 c14 -32 32 -62 40 -66 8 -4 14 -16 13
-25 0 -14 -2 -14 -10 3 -7 15 -8 11 -5 -17 3 -21 2 -38 -2 -38 -4 1 -18 24
-32 53 -31 63 -54 76 -34 18 7 -21 16 -68 19 -103 6 -60 5 -65 -23 -98 -55
-64 -64 -25 -50 230 3 52 6 96 7 98 0 1 12 2 27 2 21 0 29 -9 50 -57z m2361
20 c1 -18 8 -64 17 -102 17 -75 20 -120 10 -171 -9 -43 -28 -48 -58 -13 -30
33 -34 97 -12 183 8 30 13 57 11 59 -9 8 -54 -53 -60 -80 -4 -16 -11 -29 -16
-29 -5 0 -9 -8 -9 -17 0 -9 -2 -14 -5 -11 -7 7 23 121 46 175 17 39 22 44 46
41 24 -3 28 -8 30 -35z m-2467 -34 c0 -36 -4 -49 -12 -47 -16 6 -28 96 -13
102 19 7 25 -5 25 -55z m2522 10 c5 -50 -6 -60 -21 -17 -15 42 -14 58 3 58 9
0 15 -14 18 -41z m-2588 -194 c-9 -60 -20 -114 -24 -118 -14 -16 -17 30 -4 78
7 28 14 84 15 125 1 60 3 68 9 40 6 -30 8 -24 11 35 l3 70 4 -60 c2 -33 -4
-109 -14 -170z m-38 100 c-12 -33 -21 -5 -17 57 l5 63 9 -52 c5 -28 7 -59 3
-68z m-36 78 c0 -50 -10 -71 -31 -66 -23 6 -23 10 -4 57 18 43 35 47 35 9z
m2805 -9 c18 -44 18 -44 1 -44 -8 0 -17 8 -19 18 -4 13 -5 12 -6 -5 0 -12 -5
-25 -11 -28 -6 -4 -10 13 -10 44 0 62 22 69 45 15z m-3054 3 c14 -4 39 -3 56
2 41 12 56 1 34 -25 -18 -23 -72 -54 -92 -54 -21 0 -59 42 -59 65 0 27 10 37
24 26 6 -4 23 -11 37 -14z m189 -17 c-7 -16 -19 -30 -26 -30 -10 0 -8 6 6 20
11 11 20 28 20 37 0 9 3 13 6 10 4 -4 1 -20 -6 -37z m2890 26 c0 -8 3 -23 6
-33 5 -12 4 -15 -3 -8 -16 15 -26 55 -14 55 6 0 11 -6 11 -14z m-2913 -18 c-3
-8 -6 -5 -6 6 -1 11 2 17 5 13 3 -3 4 -12 1 -19z m2804 -58 c5 0 9 -19 9 -42
0 -24 7 -62 15 -86 14 -40 12 -92 -4 -92 -8 0 -42 243 -39 280 1 14 3 6 5 -17
2 -24 8 -43 14 -43z m359 56 c0 -35 -26 -57 -58 -50 -25 6 -24 4 11 -22 35
-26 37 -30 37 -81 0 -38 -4 -53 -13 -53 -10 0 -14 13 -13 45 1 25 4 45 9 45 4
0 7 5 7 10 0 6 -5 10 -10 10 -6 0 -21 9 -33 21 -12 12 -31 25 -42 30 -18 9
-18 9 3 5 15 -3 22 0 19 7 -6 18 -38 21 -48 5 -7 -10 -9 -10 -9 3 0 9 -8 21
-17 25 -12 6 6 10 57 14 41 4 81 7 88 8 7 1 12 -9 12 -22z m-1132 -63 c-2 -15
-9 -28 -15 -31 -10 -3 -13 12 -13 55 1 58 1 58 16 30 8 -15 14 -40 12 -54z
m916 61 c3 -8 2 -12 -4 -9 -6 3 -10 10 -10 16 0 14 7 11 14 -7z m-1369 -53
c30 -7 8 -9 -87 -10 -161 -1 -330 -23 -481 -62 -117 -31 -161 -33 -95 -6 53
22 244 65 333 75 103 12 279 13 330 3z m1455 -26 c16 -8 34 -24 40 -34 13 -25
13 -68 0 -76 -6 -4 -10 6 -10 24 0 32 -47 81 -78 81 -9 0 -24 5 -32 10 -26 17
47 12 80 -5z m-3017 -6 c7 0 -9 -7 -35 -15 -49 -15 -88 -53 -88 -86 0 -11 -4
-16 -10 -13 -17 10 -11 51 11 79 20 26 73 48 97 40 8 -2 19 -4 25 -5z m-153
-9 c0 -5 -7 -13 -16 -18 -12 -7 -15 -20 -13 -56 2 -25 1 -46 -3 -46 -5 0 -11
-1 -15 -2 -5 -2 -8 21 -9 50 -1 43 3 56 20 67 24 17 36 19 36 5z m1837 -5
c105 -15 293 -59 325 -76 16 -9 18 -25 18 -147 l0 -138 -97 33 c-54 17 -110
32 -125 32 -16 1 -70 8 -120 17 -73 13 -134 15 -278 11 -102 -3 -198 -10 -215
-15 -21 -7 26 -9 160 -7 184 3 186 3 50 -4 -77 -5 -169 -13 -205 -20 -83 -16
-237 -60 -272 -77 -15 -8 -35 -14 -45 -14 -40 1 34 39 127 66 52 15 102 31
110 36 28 17 -63 -1 -140 -27 -41 -14 -83 -29 -92 -32 -17 -5 -18 6 -18 136
l0 141 33 13 c43 18 194 55 293 72 107 18 366 18 491 0z m1317 -26 c32 -25 34
-64 4 -96 -30 -32 -38 -29 -38 17 0 37 -2 40 -27 40 -42 0 -73 11 -73 25 0 35
94 45 134 14z m-2951 -17 c22 -19 11 -27 -50 -37 -43 -7 -43 -7 -43 -48 l-1
-42 -29 33 c-36 39 -38 61 -7 89 37 35 93 37 130 5z m2882 -62 c4 -6 -5 -10
-20 -10 -15 0 -24 4 -20 10 3 6 12 10 20 10 8 0 17 -4 20 -10z m-2895 -10 c0
-5 -12 -10 -26 -10 -14 0 -23 4 -19 10 3 6 15 10 26 10 10 0 19 -4 19 -10z
m2900 -35 c0 -15 -22 -25 -57 -25 -19 0 -24 4 -19 16 3 9 6 19 6 23 0 4 16 5
35 3 20 -2 35 -10 35 -17z m229 -2 c20 -44 24 -117 8 -156 -20 -47 -42 -50
-32 -4 7 36 15 112 8 84 -2 -10 -11 -30 -19 -45 l-14 -27 -1 35 c0 19 -4 44
-9 55 -7 17 -9 15 -9 -12 -2 -69 -15 -68 -27 2 -7 41 -8 75 -3 81 5 6 27 11
49 10 30 0 41 -6 49 -23z m-3346 6 c42 16 51 -5 34 -86 -13 -59 -15 -64 -22
-40 -4 15 -4 39 0 54 4 16 3 25 -1 21 -4 -4 -13 -29 -20 -55 -7 -27 -13 -38
-13 -25 -1 12 -5 22 -10 22 -5 0 -12 6 -14 13 -5 12 0 -22 10 -82 8 -47 -16
-37 -34 14 -10 31 -11 51 -3 88 13 61 30 94 39 78 6 -8 15 -9 34 -2z m237 -3
c0 -2 3 -11 6 -20 5 -12 0 -16 -22 -16 -36 0 -59 14 -50 29 7 10 66 16 66 7z
m2938 -48 c-3 -7 -24 -18 -49 -25 -55 -14 -243 -17 -234 -3 3 6 48 10 98 11
51 0 108 6 127 13 46 18 63 19 58 4z m62 -34 c0 -21 -4 -33 -10 -29 -5 3 -10
22 -10 41 0 21 4 33 10 29 6 -3 10 -22 10 -41z m-3173 -26 c-3 -20 -4 -21 -11
-5 -5 9 -5 29 0 45 7 25 8 26 11 5 3 -13 3 -33 0 -45z m123 42 c19 -5 72 -10
118 -10 48 0 82 -4 82 -10 0 -14 -162 -11 -224 3 -27 7 -51 18 -54 26 -4 11 1
12 19 7 13 -4 40 -11 59 -16z m2590 -20 c-101 -10 -346 -10 -300 0 19 4 112 7
205 7 132 0 153 -2 95 -7z m383 -33 c-11 -42 -34 -59 -74 -52 -35 6 -37 5 -43
-26 -9 -45 -7 -101 3 -118 6 -10 19 -12 42 -7 39 7 69 -15 69 -52 0 -20 -4
-23 -22 -18 -13 3 -248 6 -523 6 -335 0 -496 3 -489 10 6 6 37 21 70 33 l59
23 0 96 c0 53 2 98 5 101 3 2 190 7 415 11 226 4 426 10 445 15 44 10 50 7 43
-22z m-2576 5 l422 -3 3 -101 c2 -78 6 -103 18 -108 8 -4 39 -18 69 -31 l54
-24 -494 -5 c-272 -3 -502 -9 -511 -14 -15 -7 -18 -4 -18 17 0 40 26 59 71 52
35 -6 39 -5 45 20 8 33 -2 125 -16 139 -7 7 -14 6 -22 -2 -29 -29 -78 8 -78
59 0 17 4 19 18 13 9 -5 207 -10 439 -12z m2693 -72 c0 -5 -21 -10 -47 -9 -36
0 -43 3 -28 9 28 12 75 12 75 0z m-3190 -10 c11 -7 2 -10 -32 -10 -27 0 -48 5
-48 10 0 13 60 13 80 0z m1370 6 c0 -7 -110 -110 -121 -114 -12 -5 -12 85 1
93 18 11 120 29 120 21z m315 -6 l20 -9 -20 0 c-13 -1 -16 -4 -8 -9 6 -4 15
-31 19 -60 5 -43 3 -56 -11 -72 -10 -11 -13 -20 -7 -20 8 0 9 -7 2 -25 -11
-29 -9 -30 28 -11 51 26 61 46 64 126 l3 75 40 -3 c22 -2 45 -9 50 -15 7 -8 9
-55 7 -124 l-4 -112 -65 -7 c-66 -7 -251 1 -261 11 -3 3 0 5 7 5 8 0 12 30 12
108 0 166 -5 152 54 151 27 0 59 -4 70 -9z m1580 -40 c42 -10 16 -18 -77 -24
-74 -4 -97 2 -83 24 7 11 114 11 160 0z m-3257 -17 c3 -10 -19 -13 -87 -13
-84 0 -129 13 -79 23 47 10 161 2 166 -10z m3187 -54 c-3 -5 -20 -7 -38 -5
-18 3 -45 6 -62 7 -16 1 -3 5 30 8 65 7 79 5 70 -10z m-3165 -1 c0 -5 -27 -8
-60 -8 -34 0 -60 4 -60 10 0 6 25 9 60 8 33 -2 60 -6 60 -10z m-295 -8 c3 -5
1 -10 -4 -10 -6 0 -11 5 -11 10 0 6 2 10 4 10 3 0 8 -4 11 -10z m3610 -20 c-3
-5 -12 -10 -18 -10 -7 0 -6 4 3 10 19 12 23 12 15 0z m355 -65 c0 -8 -4 -15
-10 -15 -5 0 -10 7 -10 15 0 8 5 15 10 15 6 0 10 -7 10 -15z m-3395 -15 c-3
-5 -46 -10 -94 -10 -48 0 -110 -7 -136 -15 -27 -8 -51 -12 -54 -9 -10 10 17
25 60 33 64 13 232 13 224 1z m2205 0 c0 -6 -28 -10 -64 -10 -36 0 -68 5 -71
10 -4 6 20 10 64 10 41 0 71 -4 71 -10z m563 -9 c29 -24 18 -30 -26 -15 -23 8
-99 18 -167 23 l-125 9 151 -1 c111 -2 155 -6 167 -16z m635 -49 c2 -14 -2
-22 -12 -22 -19 0 -29 17 -22 36 8 22 30 12 34 -14z m-688 -8 c0 -15 -43 -29
-59 -19 -6 3 -11 14 -11 24 0 14 7 16 35 13 21 -3 35 -10 35 -18z m750 10 c0
-8 -5 -12 -10 -9 -6 4 -8 11 -5 16 9 14 15 11 15 -7z m-3610 2 c0 -21 -17 -36
-40 -36 -33 0 -49 18 -29 31 14 9 69 13 69 5z m462 -46 c-3 -32 0 -55 8 -65
18 -21 -1 -39 -32 -32 -31 8 -65 34 -56 43 4 4 14 1 23 -6 17 -14 21 0 4 17
-7 7 -2 22 18 51 15 23 31 41 34 42 3 0 4 -22 1 -50z m241 36 c37 -16 107 -78
107 -95 0 -21 -26 -11 -49 20 -13 17 -25 28 -28 26 -3 -3 5 -19 17 -35 12 -17
20 -36 17 -44 -3 -8 -9 -4 -17 13 -19 42 -80 71 -142 67 -48 -3 -53 -5 -56
-28 -3 -23 -3 -24 10 -6 27 35 86 -4 62 -41 -19 -31 -61 -28 -94 6 -36 35 -37
44 -7 72 60 58 117 72 180 45z m117 -1 c7 -8 15 -13 19 -11 7 5 8 -61 1 -66
-3 -1 -26 18 -51 45 l-46 47 32 0 c18 0 38 -7 45 -15z m250 -6 c12 -7 10 -8
-7 -9 -13 0 -23 -6 -23 -14 0 -10 -13 -16 -37 -18 -37 -3 -37 -4 20 -17 l58
-14 -30 -13 c-24 -10 -40 -10 -88 3 -71 18 -82 27 -60 51 9 10 17 27 17 36 0
17 7 18 68 11 37 -4 74 -11 82 -16z m950 17 c0 -11 -19 -15 -25 -6 -3 5 1 10
9 10 9 0 16 -2 16 -4z m198 -33 c46 -37 51 -65 18 -98 -43 -43 -102 -26 -94
27 3 26 46 38 59 17 11 -18 21 -6 13 15 -8 21 -108 22 -144 1 -34 -20 -36 -19
-35 16 0 66 112 79 183 22z m107 17 c3 -11 12 -20 19 -20 17 0 40 -45 31 -61
-6 -9 -3 -11 8 -6 9 3 19 2 22 -2 4 -8 -25 -23 -70 -35 -11 -3 -26 -2 -33 3
-12 7 -11 14 3 41 16 31 16 44 0 83 -4 10 -3 17 3 17 6 0 14 -9 17 -20z m1145
10 c0 -5 -4 -10 -10 -10 -5 0 -10 5 -10 10 0 6 5 10 10 10 6 0 10 -4 10 -10z
m-3537 -95 c63 -11 72 -18 48 -39 -12 -11 -37 -19 -62 -20 -33 -1 -45 5 -65
27 -31 36 -30 54 4 90 l27 29 3 -40 c3 -39 5 -41 45 -47z m3020 5 c-14 -51
-103 -79 -147 -45 -26 20 -12 33 45 43 43 7 44 9 47 47 l4 40 28 -32 c19 -21
27 -38 23 -53z m-2983 34 c0 -2 -12 -4 -26 -4 -14 0 -23 4 -20 9 6 8 46 4 46
-5z m2890 6 c0 -5 -9 -10 -21 -10 -11 0 -17 5 -14 10 3 6 13 10 21 10 8 0 14
-4 14 -10z m-3024 -91 c9 -10 38 -26 63 -33 44 -13 45 -14 19 -21 -62 -16
-139 54 -122 113 l7 27 7 -33 c4 -18 16 -42 26 -53z m3150 15 c-8 -32 -62 -64
-106 -64 l-35 0 45 21 c58 26 77 44 86 83 7 28 8 29 12 7 2 -12 1 -34 -2 -47z
m554 56 c0 -5 -2 -10 -4 -10 -3 0 -8 5 -11 10 -3 6 -1 10 4 10 6 0 11 -4 11
-10z m-2800 -113 c30 -52 36 -94 20 -132 -8 -18 -9 -18 -10 5 -1 14 -6 34 -11
45 -8 16 -8 14 -5 -11 6 -41 -9 -94 -35 -128 -32 -40 -34 -24 -4 20 22 32 26
47 23 85 -3 26 -15 60 -27 78 -12 17 -18 31 -13 31 5 0 17 -12 27 -26 9 -14
19 -24 22 -21 6 7 -23 64 -54 105 l-25 34 31 -16 c18 -10 43 -38 61 -69z m405
14 l30 -8 -27 -11 c-22 -9 -57 -6 -170 14 -79 14 -145 28 -148 31 -3 2 5 12
16 22 21 16 27 16 145 -12 68 -16 138 -32 154 -36z m-716 9 c10 0 30 -13 45
-29 27 -29 28 -29 8 -40 -36 -19 -137 -14 -163 9 l-24 20 40 -15 40 -16 -30
25 c-36 30 -26 47 14 23 16 -9 40 -17 53 -17 20 1 18 4 -14 20 -41 22 -52 35
-43 50 4 6 16 3 32 -10 14 -11 33 -20 42 -20z m1106 30 c-16 -4 -43 -8 -60 -8
-29 1 -29 1 5 8 19 4 46 7 60 8 22 0 22 -1 -5 -8z m900 -10 c8 -13 -54 -50
-84 -50 -18 0 -22 -3 -14 -11 12 -12 88 4 98 21 8 12 35 13 35 1 0 -4 -18 -20
-40 -35 -44 -29 -108 -35 -147 -13 -22 12 -22 12 12 40 19 15 42 27 52 27 10
0 29 7 43 14 31 18 37 18 45 6z m-355 -68 l0 -59 -52 -26 c-56 -27 -182 -51
-341 -63 l-88 -7 11 28 c6 16 8 41 5 56 -3 15 -2 30 3 33 5 3 72 8 148 11 77
3 148 7 159 8 14 1 21 -5 23 -20 4 -28 -14 -36 -150 -65 -54 -11 -96 -23 -94
-26 6 -5 160 14 231 30 28 6 67 20 88 31 36 20 37 23 37 74 0 29 5 53 10 53 6
0 10 -26 10 -58z m-1263 -29 c-2 -16 -4 -3 -4 27 0 30 2 43 4 28 2 -16 2 -40
0 -55z m126 40 c28 -6 38 -23 12 -23 -11 0 -15 -12 -15 -50 0 -43 -3 -50 -20
-50 -55 0 -89 42 -55 70 8 7 15 26 15 42 0 25 3 29 18 23 9 -3 29 -9 45 -12z
m1528 -23 c-13 -11 -31 -20 -40 -20 -10 0 -5 7 14 19 39 26 56 26 26 1z
m-2155 -59 c60 -53 110 -75 167 -76 40 0 45 -2 30 -12 -28 -21 -95 -15 -151
13 -65 32 -133 114 -94 114 2 0 24 -18 48 -39z m1102 23 c90 -4 158 -10 151
-14 -6 -4 -8 -13 -4 -20 4 -7 2 -16 -6 -21 -12 -8 -12 -10 1 -18 24 -16 -31
-31 -111 -31 -53 0 -69 3 -69 14 0 10 -25 20 -77 31 -124 26 -143 34 -143 57
0 19 4 20 48 14 26 -3 120 -9 210 -12z m1109 -1 c2 -5 -14 -28 -36 -51 -61
-63 -181 -91 -241 -57 -25 14 -24 14 10 9 51 -8 140 21 194 63 25 19 46 40 46
45 0 12 23 5 27 -9z m-1901 -68 c-17 -91 -110 -138 -222 -112 -69 16 -91 30
-153 91 -58 58 -46 85 13 28 136 -131 319 -113 343 35 6 34 7 35 16 16 5 -12
6 -38 3 -58z m1530 68 c-13 -13 29 -95 62 -120 33 -25 45 -28 107 -27 84 2
141 26 193 85 36 40 52 48 52 27 -1 -16 -68 -88 -107 -115 -15 -11 -61 -25
-100 -32 -63 -11 -79 -11 -121 3 -60 20 -94 63 -104 131 -6 43 -6 40 -3 -19 2
-42 0 -63 -6 -55 -9 15 -13 112 -4 121 3 2 12 5 20 5 8 0 13 -2 11 -4z m-1460
-57 c-4 -25 -12 -49 -18 -52 -8 -5 -9 -1 -5 10 4 10 10 36 13 57 4 22 9 37 12
35 2 -3 1 -25 -2 -50z m93 -51 c-13 -25 -27 -45 -31 -45 -11 0 -11 1 12 45 11
22 20 46 20 54 0 11 3 12 12 3 8 -8 5 -22 -13 -57z m1305 10 l6 -30 -15 25
c-8 14 -14 32 -15 40 0 23 17 -2 24 -35z m-1858 -6 c48 -44 69 -69 58 -69 -14
0 -114 90 -114 102 0 15 13 7 56 -33z m2363 24 c-13 -21 -93 -86 -112 -92 -6
-1 13 22 43 52 54 55 93 77 69 40z m-1536 0 c-7 -2 -19 -2 -25 0 -7 3 -2 5 12
5 14 0 19 -2 13 -5z m1009 -43 c34 -61 19 -67 -17 -7 -26 46 -30 57 -17 57 4
0 19 -23 34 -50z m-2455 33 c-3 -5 -10 -28 -17 -52 -6 -23 -13 -41 -16 -38 -8
8 18 97 28 97 5 0 7 -3 5 -7z m1712 -9 c7 -7 -112 -2 -169 6 -37 5 -20 6 55 3
61 -3 112 -7 114 -9z m1851 6 c0 -5 -5 -10 -11 -10 -5 0 -7 5 -4 10 3 6 8 10
11 10 2 0 4 -4 4 -10z m-2888 -103 c131 -69 282 -76 397 -18 73 36 89 36 33
-2 -124 -81 -318 -77 -462 12 -27 17 -54 31 -58 31 -17 0 -64 59 -57 70 5 8
19 1 44 -23 20 -19 66 -51 103 -70z m552 1 c-20 -45 -85 -96 -170 -135 -86
-39 -230 -45 -317 -13 -96 35 -274 177 -250 201 8 8 23 1 57 -25 176 -134 362
-169 517 -98 72 32 159 109 159 139 0 34 15 36 18 2 2 -18 -4 -50 -14 -71z
m84 -90 c9 -10 12 7 12 85 0 104 1 106 56 91 19 -5 23 -16 29 -76 7 -71 6 -71
-24 -95 -38 -30 -39 -40 -6 -55 14 -6 25 -15 25 -20 0 -15 -62 22 -92 55 -27
30 -28 35 -26 122 l2 90 5 -92 c4 -53 11 -97 19 -105z m1052 111 c0 -65 -4
-88 -21 -115 -20 -33 -75 -74 -100 -74 -7 0 8 13 33 29 26 16 51 39 57 50 6
11 11 58 11 105 0 51 4 86 10 86 6 0 10 -34 10 -81z m664 74 c7 -7 -53 -73
-67 -73 -5 0 -28 -13 -51 -28 -71 -48 -123 -63 -236 -69 -93 -5 -114 -3 -163
16 -63 23 -107 49 -107 62 0 4 15 0 33 -10 72 -42 135 -54 241 -48 92 6 108
10 182 47 45 23 96 57 115 76 34 35 41 39 53 27z m-2008 -35 c-18 -26 -22 -17
-5 14 6 11 13 17 16 15 3 -3 -2 -16 -11 -29z m2505 6 c12 -34 9 -36 -16 -11
-11 11 -14 17 -7 13 6 -4 12 -3 12 3 0 5 -6 12 -12 14 -10 4 -10 6 0 6 7 1 17
-11 23 -25z m-1261 -9 c0 -14 10 -39 21 -55 19 -25 20 -32 10 -59 -16 -38 -34
-53 -97 -85 -38 -19 -68 -26 -108 -26 -57 0 -126 -21 -126 -38 0 -12 77 -5
150 14 99 24 108 26 72 9 -49 -23 -162 -44 -260 -49 -48 -3 -76 -3 -62 0 48
10 53 13 41 28 -16 19 -55 26 -198 35 -147 9 -163 18 -163 91 0 32 5 50 14 53
8 3 16 22 18 44 l3 38 45 -2 c240 -11 299 -16 294 -24 -3 -5 -8 -7 -12 -5 -12
7 0 -89 12 -96 8 -6 7 -8 -1 -8 -7 0 -13 -6 -13 -14 0 -8 -8 -17 -17 -20 -10
-3 6 -3 36 -1 72 6 101 26 101 70 0 36 -17 60 -51 70 -47 15 -9 30 96 37 59 4
110 10 113 13 3 3 23 5 44 5 34 0 38 -3 38 -25z m1310 -7 c0 -36 -4 -35 -14 5
-4 16 -2 27 4 27 5 0 10 -14 10 -32z m-3544 -14 c-19 -18 -21 -11 -4 19 7 14
13 17 15 10 3 -7 -3 -20 -11 -29z m3012 -22 c-53 -55 -172 -140 -230 -163
-101 -40 -319 -15 -401 46 -13 9 -16 20 -12 38 l7 25 47 -24 c100 -50 229 -56
357 -16 57 18 195 101 223 136 11 13 17 14 28 5 12 -10 8 -18 -19 -47z m-2313
-2 c3 -5 2 -10 -4 -10 -5 0 -13 5 -16 10 -3 6 -2 10 4 10 5 0 13 -4 16 -10z
m2105 -5 c-14 -8 -29 -14 -35 -14 -5 0 1 6 15 14 14 8 30 14 35 14 6 0 -1 -6
-15 -14z m-1365 -185 c13 -6 15 -9 5 -9 -8 0 -22 4 -30 9 -18 12 -2 12 25 0z
m223 -190 c10 -14 35 -36 55 -49 46 -30 41 -39 -8 -16 -52 25 -95 81 -95 126
0 53 14 57 22 7 4 -23 16 -54 26 -68z m312 67 c-1 -39 -39 -103 -77 -128 -40
-27 -57 -23 -28 5 29 29 24 53 -13 67 -26 10 -89 2 -98 -12 -3 -5 -12 -9 -21
-9 -13 0 -13 2 -2 16 8 9 13 26 11 38 -4 36 11 44 101 51 l87 7 0 -46 c0 -29
4 -45 10 -41 6 3 10 26 10 51 0 28 4 43 10 39 6 -3 10 -21 10 -38z"/>
<path d="M715 4510 c-4 -6 5 -10 19 -10 14 0 26 5 26 10 0 6 -9 10 -19 10 -11
0 -23 -4 -26 -10z"/>
<path d="M730 4450 c-21 -7 -18 -8 20 -10 l45 -2 -38 -8 c-56 -10 -57 -20 -2
-20 30 0 55 -6 65 -15 16 -15 18 -14 22 9 9 44 -47 67 -112 46z"/>
<path d="M4595 4510 c-3 -5 3 -10 15 -10 12 0 18 5 15 10 -3 6 -10 10 -15 10
-5 0 -12 -4 -15 -10z"/>
<path d="M4179 3213 c-13 -16 -12 -17 4 -4 16 13 21 21 13 21 -2 0 -10 -8 -17
-17z"/>
<path d="M1187 2960 c-36 -60 -164 -110 -284 -110 l-62 0 -3 -57 -3 -57 -70
-41 c-102 -58 -128 -80 -164 -140 -35 -58 -50 -140 -37 -208 12 -64 75 -144
154 -198 41 -27 80 -49 87 -49 22 0 35 -34 35 -91 l0 -52 38 7 c49 7 153 -10
214 -36 26 -11 63 -37 81 -57 l33 -36 64 13 c36 7 103 21 150 32 369 83 638
121 1005 140 405 22 885 -14 1285 -95 231 -47 396 -83 420 -90 15 -5 23 0 31
19 28 60 142 107 264 109 l80 2 5 59 5 59 70 39 c139 78 199 163 200 283 0 58
-5 81 -31 135 -28 59 -38 71 -107 115 -41 28 -89 58 -106 67 -29 16 -31 21
-31 73 l0 55 -69 0 c-121 0 -253 53 -273 110 -5 17 -17 30 -26 30 -10 0 -66
-13 -127 -29 -232 -61 -465 -105 -730 -137 -114 -14 -227 -17 -610 -18 -311 0
-504 5 -570 13 -293 36 -521 77 -754 137 -74 19 -137 34 -141 34 -3 0 -14 -13
-23 -30z m113 -264 c131 -19 163 -29 213 -63 44 -31 57 -56 57 -114 0 -46 -13
-77 -44 -101 l-21 -17 21 -23 c48 -52 57 -112 28 -174 -29 -61 -94 -88 -254
-104 -52 -6 -115 -13 -140 -16 -44 -7 -45 -6 -27 13 15 18 17 49 17 338 l0
318 23 -21 c17 -16 48 -25 127 -36z m2672 3 c2 -6 30 -15 62 -20 32 -6 71 -16
87 -24 77 -40 129 -141 129 -249 0 -63 -24 -166 -39 -166 -4 0 -16 -15 -25
-32 -26 -47 -56 -66 -133 -85 -38 -9 -75 -22 -84 -30 -14 -12 -17 -12 -22 1
-3 7 -36 24 -72 36 -88 29 -162 89 -198 160 -25 47 -28 64 -24 115 2 34 12 76
21 94 41 79 127 144 223 170 23 6 44 18 47 26 6 18 23 20 28 4z m-362 -131 c0
-56 -3 -69 -12 -60 -7 7 -39 12 -75 12 l-63 0 0 -169 c0 -141 3 -172 16 -185
14 -15 12 -16 -18 -16 -81 0 -169 13 -159 23 7 7 11 73 11 174 l0 163 -51 0
c-28 0 -59 -5 -70 -10 -18 -10 -19 -7 -19 55 l0 65 83 1 c45 1 120 4 167 8 47
5 109 9 138 9 l52 2 0 -72z m-1579 -44 c35 -59 81 -139 103 -178 44 -81 103
-166 117 -166 5 0 9 -4 9 -10 0 -6 -38 -10 -95 -10 -80 0 -93 2 -89 15 14 34
-14 45 -117 45 -89 0 -99 -2 -109 -20 -6 -12 -8 -30 -5 -40 6 -18 1 -20 -47
-20 -29 0 -78 -3 -108 -6 l-55 -7 27 22 c26 21 83 111 104 166 6 17 48 90 93
164 44 74 81 138 81 143 0 4 6 8 13 8 7 0 42 -48 78 -106z m717 27 c1 -39 -1
-71 -6 -71 -4 0 -27 7 -51 15 -34 13 -54 14 -98 5 -81 -14 -122 -52 -122 -110
0 -51 56 -110 103 -110 13 0 16 12 16 54 0 30 -4 58 -10 61 -28 17 -1 25 92
25 79 0 99 -3 90 -12 -16 -16 -16 -210 0 -226 18 -18 -173 -16 -245 3 -78 20
-153 61 -179 98 -34 48 -37 143 -7 197 26 46 89 92 158 114 39 14 236 36 251
30 3 -1 7 -34 8 -73z m312 -145 c0 -118 2 -220 5 -228 4 -10 -15 -12 -96 -10
-96 3 -100 4 -85 21 13 15 16 48 16 209 0 116 -4 193 -10 197 -27 17 -2 25 80
25 l90 0 0 -214z m-2181 58 c39 -33 41 -74 6 -109 -48 -49 -135 -15 -135 53 0
31 14 54 45 70 31 17 51 14 84 -14z m3692 -3 c36 -36 37 -60 3 -100 -19 -23
-34 -31 -59 -31 -25 0 -40 8 -59 31 -14 17 -26 40 -26 51 0 29 53 78 85 78 16
0 38 -12 56 -29z"/>
<path d="M1300 2521 l0 -71 38 0 c52 0 82 23 82 64 0 42 -26 66 -79 73 l-41 6
0 -72z"/>
<path d="M1302 2278 l3 -63 35 3 c51 5 80 27 80 61 0 39 -28 61 -79 61 l-42 0
3 -62z"/>
<path d="M3892 2513 c-108 -53 -101 -195 13 -238 76 -29 152 0 181 71 18 44
18 68 -3 111 -31 67 -118 92 -191 56z"/>
<path d="M1947 2374 c-15 -15 -7 -44 13 -44 11 0 20 4 20 8 0 15 -26 43 -33
36z"/>
<path d="M1068 1663 c6 -2 18 -2 25 0 6 3 1 5 -13 5 -14 0 -19 -2 -12 -5z"/>
<path d="M4352 1395 c0 -16 2 -22 5 -12 2 9 2 23 0 30 -3 6 -5 -1 -5 -18z"/>
<path d="M1012 1365 c0 -16 2 -22 5 -12 2 9 2 23 0 30 -3 6 -5 -1 -5 -18z"/>
<path d="M1964 926 c11 -9 27 -16 35 -16 21 0 2 16 -29 24 -24 7 -24 6 -6 -8z"/>
<path d="M3361 929 c-13 -5 -21 -12 -18 -15 3 -3 18 1 34 10 31 17 21 20 -16
5z"/>
</g>
</svg>
